<?xml version="1.0" encoding="UTF-8"?> <svg xmlns="http://www.w3.org/2000/svg" width="32" height="33" viewBox="0 0 32 33" fill="none"><path d="M10.4915 21.1132L9.33333 29.8333L15.4512 26.1626C15.6507 26.0429 15.7505 25.983 15.857 25.9596C15.9512 25.939 16.0488 25.939 16.143 25.9596C16.2495 25.983 16.3493 26.0429 16.5488 26.1626L22.6667 29.8333L21.5092 21.1095M21.9012 6.16517C22.1071 6.6632 22.5024 7.05906 23.0001 7.26574L24.7452 7.98864C25.2433 8.19495 25.639 8.59066 25.8453 9.08873C26.0516 9.58679 26.0516 10.1464 25.8453 10.6445L25.1229 12.3885C24.9165 12.8868 24.9162 13.4469 25.1236 13.945L25.8447 15.6885C25.9469 15.9351 25.9996 16.1996 25.9996 16.4666C25.9997 16.7337 25.9471 16.9981 25.8449 17.2448C25.7427 17.4915 25.5929 17.7157 25.4041 17.9045C25.2152 18.0933 24.991 18.243 24.7443 18.3451L23.0004 19.0675C22.5023 19.2735 22.1065 19.6687 21.8998 20.1664L21.1769 21.9117C20.9707 22.4098 20.575 22.8055 20.0769 23.0118C19.5789 23.2181 19.0193 23.2181 18.5212 23.0118L16.7773 22.2894C16.2792 22.0836 15.7198 22.084 15.2221 22.2906L13.4769 23.0124C12.9791 23.2182 12.42 23.2181 11.9224 23.0119C11.4247 22.8058 11.0293 22.4106 10.8228 21.913L10.0997 20.1673C9.8938 19.6692 9.49854 19.2734 9.00085 19.0667L7.25566 18.3438C6.75783 18.1376 6.36226 17.7421 6.15588 17.2443C5.94951 16.7466 5.94923 16.1872 6.1551 15.6892L6.87746 13.9452C7.08325 13.4471 7.08283 12.8877 6.8763 12.3899L6.15497 10.6435C6.0527 10.3968 6.00004 10.1323 6 9.8653C5.99996 9.59825 6.05253 9.33382 6.15472 9.0871C6.25691 8.84038 6.40671 8.61622 6.59557 8.42742C6.78442 8.23862 7.00862 8.08889 7.25537 7.98677L8.9993 7.26438C9.49687 7.05864 9.89249 6.66387 10.0993 6.16672L10.8222 4.42148C11.0285 3.92341 11.4242 3.5277 11.9222 3.3214C12.4203 3.11509 12.9799 3.11509 13.4779 3.3214L15.2218 4.04378C15.7199 4.24958 16.2793 4.24916 16.7771 4.04261L18.523 3.32252C19.021 3.11633 19.5804 3.11637 20.0784 3.32263C20.5763 3.5289 20.972 3.9245 21.1783 4.42243L21.9014 6.1682L21.9012 6.16517Z" stroke="#E36300" stroke-width="2" stroke-linecap="round" stroke-linejoin="round"></path></svg> 