<?xml version="1.0" encoding="UTF-8"?> <svg xmlns="http://www.w3.org/2000/svg" width="32" height="33" viewBox="0 0 32 33" fill="none"><path d="M7.99996 15.1667V20.5M24 12.5V17.8333M22.6666 5.83334C25.9316 5.83334 27.6975 6.33302 28.5761 6.72059C28.6931 6.77221 28.7516 6.79801 28.9205 6.95916C29.0217 7.05576 29.2065 7.33919 29.254 7.47079C29.3333 7.69032 29.3333 7.81032 29.3333 8.05033V22.3815C29.3333 23.5932 29.3333 24.1991 29.1516 24.5105C28.9668 24.8272 28.7885 24.9745 28.4425 25.0963C28.1024 25.2159 27.4159 25.084 26.0429 24.8202C25.0818 24.6355 23.942 24.5 22.6666 24.5C18.6666 24.5 14.6666 27.1667 9.33329 27.1667C6.06835 27.1667 4.30245 26.667 3.4238 26.2794C3.30679 26.2278 3.24828 26.202 3.07943 26.0408C2.97821 25.9442 2.79345 25.6608 2.74592 25.5292C2.66663 25.3097 2.66663 25.1897 2.66663 24.9497L2.66663 10.6185C2.66663 9.40678 2.66663 8.80094 2.84833 8.48953C3.03316 8.17275 3.21141 8.02549 3.55737 7.90375C3.89747 7.78407 4.584 7.91598 5.95706 8.1798C6.91812 8.36446 8.05793 8.5 9.33329 8.5C13.3333 8.5 17.3333 5.83334 22.6666 5.83334ZM19.3333 16.5C19.3333 18.3409 17.8409 19.8333 16 19.8333C14.159 19.8333 12.6666 18.3409 12.6666 16.5C12.6666 14.6591 14.159 13.1667 16 13.1667C17.8409 13.1667 19.3333 14.6591 19.3333 16.5Z" stroke="#E36300" stroke-width="2" stroke-linecap="round" stroke-linejoin="round"></path></svg> 