<?xml version="1.0" encoding="UTF-8"?> <svg xmlns="http://www.w3.org/2000/svg" width="44" height="45" viewBox="0 0 44 45" fill="none"><path d="M37.286 3.76744L22.1116 1.8274C22.0377 1.81795 21.9621 1.81795 21.8882 1.8274L6.71418 3.76744C4.55156 4.0433 2.9209 5.89568 2.9209 8.07592V15.1327C2.9209 27.4458 10.2784 38.429 21.6652 43.1139C21.7722 43.1582 21.886 43.1801 21.9999 43.1801C22.1138 43.1801 22.2276 43.1582 22.3346 43.1139C33.7213 38.429 41.0789 27.4458 41.0789 15.1327V8.07592C41.0789 5.89568 39.4482 4.0433 37.286 3.76744ZM39.3189 15.1327C39.3189 26.6083 32.5337 36.8577 21.9999 41.3462C11.4661 36.8577 4.6809 26.6083 4.6809 15.1327V8.07592C4.6809 6.77912 5.6507 5.6774 6.93719 5.51283L21.9999 3.5874L37.063 5.51283C38.3491 5.6774 39.3189 6.77912 39.3189 8.07592V15.1327ZM36.7906 7.25264L22.1116 5.37619C22.0368 5.36674 21.9629 5.36674 21.8882 5.37619L7.20918 7.25264C6.77004 7.3085 6.4409 7.68232 6.4409 8.12533V15.1327C6.4409 25.5281 12.2571 34.7668 21.6205 39.2437C21.7404 39.3009 21.8701 39.3297 21.9999 39.3297C22.1297 39.3297 22.2594 39.3009 22.3793 39.2437C31.7426 34.7668 37.5589 25.5281 37.5589 15.1327V8.12533C37.5589 7.68232 37.2297 7.3085 36.7906 7.25264ZM17.1014 19.4265C17.3412 19.2413 17.6252 19.1515 17.9071 19.1515C18.3024 19.1515 18.6934 19.3277 18.953 19.6637L20.3452 21.4646C20.4264 21.5698 20.551 21.6326 20.6838 21.6356C20.8036 21.618 20.9437 21.5806 21.0296 21.4792L26.0527 15.528C26.5236 14.9715 27.3568 14.9015 27.9132 15.3707C28.1827 15.598 28.3472 15.9169 28.3773 16.2679C28.407 16.6194 28.2978 16.9614 28.0705 17.2304L22.6818 23.6143C22.1825 24.206 21.4525 24.5454 20.679 24.5454L20.6408 24.545C19.8347 24.5308 19.0918 24.16 18.6023 23.5271L16.8643 21.2785C16.4191 20.7027 16.5257 19.8721 17.1014 19.4265Z" fill="white"></path></svg> 